<svg width="80" height="80" viewBox="0 0 80 80" fill="none" xmlns="http://www.w3.org/2000/svg">
<path fill-rule="evenodd" clip-rule="evenodd" d="M42.8304 7.38016C42.0196 8.19092 40.92 8.6464 39.7734 8.6464C38.6269 8.6464 37.5272 8.19092 36.7165 7.38016C35.9057 6.56941 35.4502 5.46978 35.4502 4.3232C35.4502 3.17662 35.9057 2.07699 36.7165 1.26624C37.5272 0.455479 38.6269 0 39.7734 0C40.92 0 42.0196 0.455479 42.8304 1.26624C43.6412 2.07699 44.0966 3.17662 44.0966 4.3232C44.0966 5.46978 43.6412 6.56941 42.8304 7.38016ZM67.905 17.7558C67.0942 18.5666 65.9946 19.0221 64.848 19.0221C63.7014 19.0221 62.6018 18.5666 61.791 17.7558C60.9803 16.9451 60.5248 15.8455 60.5248 14.6989C60.5248 13.5523 60.9803 12.4527 61.791 11.6419C62.6018 10.8312 63.7014 10.3757 64.848 10.3757C65.9946 10.3757 67.0942 10.8312 67.905 11.6419C68.7157 12.4527 69.1712 13.5523 69.1712 14.6989C69.1712 15.8455 68.7157 16.9451 67.905 17.7558ZM78.2806 42.8304C77.4699 43.6412 76.3703 44.0966 75.2237 44.0966C74.0771 44.0966 72.9775 43.6412 72.1667 42.8304C71.3559 42.0196 70.9005 40.92 70.9005 39.7734C70.9005 38.6269 71.3559 37.5272 72.1667 36.7165C72.9775 35.9057 74.0771 35.4502 75.2237 35.4502C76.3703 35.4502 77.4699 35.9057 78.2806 36.7165C79.0914 37.5272 79.5469 38.6269 79.5469 39.7734C79.5469 40.92 79.0914 42.0196 78.2806 42.8304ZM67.905 67.905C67.0942 68.7157 65.9946 69.1712 64.848 69.1712C63.7014 69.1712 62.6018 68.7157 61.791 67.905C60.9803 67.0942 60.5248 65.9946 60.5248 64.848C60.5248 63.7014 60.9803 62.6018 61.791 61.791C62.6018 60.9803 63.7014 60.5248 64.848 60.5248C65.9946 60.5248 67.0942 60.9803 67.905 61.791C68.7157 62.6018 69.1712 63.7014 69.1712 64.848C69.1712 65.9946 68.7157 67.0942 67.905 67.905ZM42.8304 78.2806C42.0196 79.0914 40.92 79.5469 39.7734 79.5469C38.6269 79.5469 37.5272 79.0914 36.7165 78.2806C35.9057 77.4699 35.4502 76.3703 35.4502 75.2237C35.4502 74.0771 35.9057 72.9775 36.7165 72.1667C37.5272 71.3559 38.6269 70.9005 39.7734 70.9005C40.92 70.9005 42.0196 71.3559 42.8304 72.1667C43.6412 72.9775 44.0966 74.0771 44.0966 75.2237C44.0966 76.3703 43.6412 77.4699 42.8304 78.2806ZM17.7558 67.905C16.9451 68.7157 15.8455 69.1712 14.6989 69.1712C13.5523 69.1712 12.4527 68.7157 11.6419 67.905C10.8312 67.0942 10.3757 65.9946 10.3757 64.848C10.3757 63.7014 10.8312 62.6018 11.6419 61.791C12.4527 60.9803 13.5523 60.5248 14.6989 60.5248C15.8455 60.5248 16.9451 60.9803 17.7558 61.791C18.5666 62.6018 19.0221 63.7014 19.0221 64.848C19.0221 65.9946 18.5666 67.0942 17.7558 67.905ZM7.38016 42.8304C6.56941 43.6412 5.46978 44.0966 4.3232 44.0966C3.17662 44.0966 2.07699 43.6412 1.26624 42.8304C0.455479 42.0196 0 40.92 0 39.7734C0 38.6269 0.455479 37.5272 1.26624 36.7165C2.07699 35.9057 3.17662 35.4502 4.3232 35.4502C5.46978 35.4502 6.56941 35.9057 7.38016 36.7165C8.19092 37.5272 8.6464 38.6269 8.6464 39.7734C8.6464 40.92 8.19092 42.0196 7.38016 42.8304ZM17.7558 17.7558C16.9451 18.5666 15.8455 19.0221 14.6989 19.0221C13.5523 19.0221 12.4527 18.5666 11.6419 17.7558C10.8312 16.9451 10.3757 15.8455 10.3757 14.6989C10.3757 13.5523 10.8312 12.4527 11.6419 11.6419C12.4527 10.8312 13.5523 10.3757 14.6989 10.3757C15.8455 10.3757 16.9451 10.8312 17.7558 11.6419C18.5666 12.4527 19.0221 13.5523 19.0221 14.6989C19.0221 15.8455 18.5666 16.9451 17.7558 17.7558ZM62.2545 39.7733C62.2545 52.1895 52.19 62.2539 39.7738 62.2539C27.3576 62.2539 17.2932 52.1895 17.2932 39.7733C17.2932 27.3571 27.3576 17.2927 39.7738 17.2927C52.19 17.2927 62.2545 27.3571 62.2545 39.7733ZM24.8352 33.2978L25.9997 30.559L27.1751 33.2978H24.8352ZM28.3603 36.0596L27.7526 34.6436H24.263L23.6559 36.0713C23.6013 36.2195 23.5155 36.3365 23.3985 36.4223C23.2893 36.5004 23.1683 36.5394 23.0357 36.5394C22.8251 36.5394 22.669 36.4808 22.5676 36.3638C22.4662 36.2468 22.4155 36.1025 22.4155 35.9308C22.4155 35.8606 22.4272 35.7865 22.4506 35.7085L25.3645 28.7105C25.4269 28.5544 25.5205 28.4335 25.6453 28.3477C25.778 28.2619 25.9184 28.2268 26.0666 28.2424C26.207 28.2424 26.3358 28.2853 26.4528 28.3711C26.5776 28.4491 26.6673 28.5622 26.722 28.7105L29.6007 35.5681C29.6397 35.6695 29.6592 35.7631 29.6592 35.8489C29.6592 36.0596 29.589 36.2273 29.4486 36.3521C29.316 36.4769 29.1677 36.5394 29.0039 36.5394C28.8635 36.5394 28.7348 36.4965 28.6177 36.4106C28.5085 36.3248 28.4227 36.2078 28.3603 36.0596ZM35.1672 35.1117C35.3701 35.1117 35.5378 35.178 35.6704 35.3106C35.8108 35.4354 35.8811 35.5993 35.8811 35.8021C35.8811 35.9972 35.8108 36.161 35.6704 36.2936C35.5378 36.4184 35.3701 36.4809 35.1672 36.4809H31.3639C31.1611 36.4809 30.9895 36.4145 30.849 36.2819C30.7164 36.1415 30.6501 35.9698 30.6501 35.767V29.003C30.6501 28.8002 30.7203 28.6325 30.8607 28.4998C31.0012 28.3594 31.1806 28.2892 31.3991 28.2892C31.5863 28.2892 31.7501 28.3594 31.8906 28.4998C32.0388 28.6325 32.1129 28.8002 32.1129 29.003V35.1117H35.1672ZM41.7384 35.1117C41.9412 35.1117 42.1089 35.178 42.2416 35.3106C42.382 35.4354 42.4522 35.5993 42.4522 35.8021C42.4522 35.9972 42.382 36.161 42.2416 36.2936C42.1089 36.4184 41.9412 36.4809 41.7384 36.4809H37.9351C37.7323 36.4809 37.5606 36.4145 37.4202 36.2819C37.2876 36.1415 37.2213 35.9698 37.2213 35.767V29.003C37.2213 28.8002 37.2915 28.6325 37.4319 28.4998C37.5723 28.3594 37.7518 28.2892 37.9702 28.2892C38.1574 28.2892 38.3213 28.3594 38.4617 28.4998C38.6099 28.6325 38.6841 28.8002 38.6841 29.003V35.1117H41.7384ZM48.5351 35.767C48.5351 35.9698 48.4609 36.1415 48.3127 36.2819C48.1645 36.4145 47.9929 36.4809 47.7978 36.4809C47.5794 36.4809 47.4038 36.4145 47.2712 36.2819C47.1386 36.1415 47.0723 35.9698 47.0723 35.767V29.003C47.0723 28.8002 47.1425 28.6325 47.2829 28.4998C47.4233 28.3594 47.6028 28.2892 47.8212 28.2892C48.0085 28.2892 48.1723 28.3594 48.3127 28.4998C48.4609 28.6325 48.5351 28.8002 48.5351 29.003V35.767ZM56.5089 28.2892C56.6962 28.2892 56.8483 28.3516 56.9653 28.4764C57.0824 28.6013 57.1409 28.7573 57.1409 28.9445V35.767C57.1409 35.9698 57.0707 36.1415 56.9302 36.2819C56.7976 36.4145 56.6299 36.4809 56.427 36.4809C56.3256 36.4809 56.2203 36.4652 56.1111 36.434C56.0096 36.395 55.9316 36.3443 55.877 36.2819L51.5822 30.8288V35.8255C51.5822 36.0128 51.5198 36.1688 51.395 36.2936C51.278 36.4184 51.122 36.4809 50.9269 36.4809C50.7397 36.4809 50.5875 36.4184 50.4705 36.2936C50.3535 36.1688 50.295 36.0128 50.295 35.8255V29.003C50.295 28.8002 50.3613 28.6325 50.4939 28.4998C50.6344 28.3594 50.806 28.2892 51.0088 28.2892C51.1181 28.2892 51.2312 28.3126 51.3482 28.3594C51.4652 28.3984 51.551 28.4608 51.6057 28.5466L55.8653 33.9802V28.9445C55.8653 28.7573 55.9238 28.6013 56.0408 28.4764C56.1579 28.3516 56.3139 28.2892 56.5089 28.2892ZM35.6081 46.1283C35.8031 45.6212 35.9007 45.0751 35.9007 44.49C35.9007 43.9049 35.8031 43.3588 35.6081 42.8517C35.4131 42.3446 35.1361 41.8999 34.7772 41.5176C34.4262 41.1275 34.0049 40.8233 33.5134 40.6048C33.0297 40.3864 32.4992 40.2771 31.9218 40.2771C31.3445 40.2771 30.814 40.3864 30.3303 40.6048C29.8466 40.8233 29.4253 41.1275 29.0665 41.5176C28.7154 41.8999 28.4423 42.3446 28.2473 42.8517C28.0523 43.3588 27.9547 43.9049 27.9547 44.49C27.9547 45.0751 28.0523 45.6212 28.2473 46.1283C28.4423 46.6354 28.7154 47.084 29.0665 47.4741C29.4253 47.8564 29.8466 48.1567 30.3303 48.3752C30.814 48.5936 31.3445 48.7029 31.9218 48.7029C32.4992 48.7029 33.0297 48.5936 33.5134 48.3752C34.0049 48.1567 34.4262 47.8564 34.7772 47.4741C35.1361 47.084 35.4131 46.6354 35.6081 46.1283ZM34.0634 43.074C34.274 43.4953 34.3793 43.9673 34.3793 44.49C34.3793 45.0127 34.274 45.4886 34.0634 45.9177C33.8527 46.339 33.5641 46.6744 33.1974 46.9241C32.8307 47.1737 32.4055 47.2986 31.9218 47.2986C31.4381 47.2986 31.013 47.1737 30.6463 46.9241C30.2796 46.6744 29.991 46.339 29.7803 45.9177C29.5775 45.4886 29.4761 45.0127 29.4761 44.49C29.4761 43.9595 29.5775 43.4836 29.7803 43.0623C29.991 42.641 30.2796 42.3056 30.6463 42.0559C31.013 41.8063 31.4381 41.6814 31.9218 41.6814C32.4055 41.6814 32.8307 41.8063 33.1974 42.0559C33.5641 42.3056 33.8527 42.6449 34.0634 43.074ZM43.9143 40.5814C43.7973 40.4566 43.6451 40.3942 43.4579 40.3942C43.2629 40.3942 43.1068 40.4566 42.9898 40.5814C42.8728 40.7062 42.8143 40.8623 42.8143 41.0495V46.0852L38.5546 40.6516C38.5 40.5658 38.4142 40.5034 38.2972 40.4644C38.1801 40.4176 38.067 40.3942 37.9578 40.3942C37.755 40.3942 37.5833 40.4644 37.4429 40.6048C37.3103 40.7374 37.244 40.9052 37.244 41.108V47.9305C37.244 48.1177 37.3025 48.2738 37.4195 48.3986C37.5365 48.5234 37.6886 48.5858 37.8759 48.5858C38.0709 48.5858 38.227 48.5234 38.344 48.3986C38.4688 48.2738 38.5312 48.1177 38.5312 47.9305V42.9337L42.826 48.3869C42.8806 48.4493 42.9586 48.5 43.06 48.539C43.1693 48.5702 43.2746 48.5858 43.376 48.5858C43.5788 48.5858 43.7466 48.5195 43.8792 48.3869C44.0196 48.2465 44.0898 48.0748 44.0898 47.872V41.0495C44.0898 40.8623 44.0313 40.7062 43.9143 40.5814ZM50.4834 40.3942H46.5631C46.3603 40.3942 46.1887 40.4644 46.0482 40.6048C45.9156 40.7374 45.8493 40.9052 45.8493 41.108V47.872C45.8493 48.0748 45.9156 48.2465 46.0482 48.3869C46.1887 48.5195 46.3603 48.5858 46.5631 48.5858H50.4834C50.6863 48.5858 50.854 48.5234 50.9866 48.3986C51.1271 48.2738 51.1973 48.1138 51.1973 47.9188C51.1973 47.7394 51.1271 47.5833 50.9866 47.4507C50.854 47.3103 50.6863 47.2401 50.4834 47.2401H47.3121V45.0751H49.9568C50.1597 45.0751 50.3274 45.0166 50.46 44.8996C50.6005 44.7748 50.6707 44.6148 50.6707 44.4198C50.6707 44.2169 50.6005 44.0531 50.46 43.9283C50.3274 43.7957 50.1597 43.7293 49.9568 43.7293H47.3121V41.7399H50.4834C50.6863 41.7399 50.854 41.6814 50.9866 41.5644C51.1271 41.4396 51.1973 41.2797 51.1973 41.0846C51.1973 40.8818 51.1271 40.7179 50.9866 40.5931C50.854 40.4605 50.6863 40.3942 50.4834 40.3942Z" fill="url(#paint0_linear_212_94)"/>
<defs>
<linearGradient id="paint0_linear_212_94" x1="39.7734" y1="0" x2="86.561" y2="44.221" gradientUnits="userSpaceOnUse">
<stop stop-color="white"/>
<stop offset="1" stop-color="#BACDFE"/>
</linearGradient>
</defs>
</svg>
