<svg width="69" height="71" viewBox="0 0 69 71" fill="none" xmlns="http://www.w3.org/2000/svg">
<path fill-rule="evenodd" clip-rule="evenodd" d="M34.9661 70.9998C53.7316 70.9998 68.9439 55.2441 68.9439 35.8085C68.9439 16.3729 53.7316 0.617188 34.9661 0.617188C16.2007 0.617188 0.988281 16.3729 0.988281 35.8085C0.988281 55.2441 16.2007 70.9998 34.9661 70.9998ZM34.9661 66.5813C18.5568 66.5813 5.25441 52.8039 5.25441 35.8085C5.25441 18.8131 18.5568 5.03568 34.9661 5.03568C51.3754 5.03568 64.6778 18.8131 64.6778 35.8085C64.6778 52.8039 51.3754 66.5813 34.9661 66.5813ZM35.5816 8.98514C34.3207 9.03931 33.1259 9.56408 32.2329 10.4559L27.4398 15.249H20.6639L20.2855 15.2641C19.0166 15.3596 17.8307 15.9309 16.9652 16.8637C16.0998 17.7965 15.6188 19.0219 15.6185 20.2943V27.0703L10.8254 31.8633L10.5328 32.1837C9.72013 33.1501 9.29933 34.386 9.35351 35.6475C9.40769 36.909 9.9329 38.1043 10.8254 38.9975L15.6185 43.7906V50.5665L15.6311 50.9449C15.7266 52.2142 16.2983 53.4005 17.2317 54.266C18.165 55.1315 19.391 55.6122 20.6639 55.6118H27.4423L32.2354 60.4049L32.5558 60.6975C33.5221 61.5102 34.7581 61.931 36.0196 61.8768C37.2811 61.8226 38.4764 61.2974 39.3695 60.4049L44.1626 55.6118H50.936L51.3119 55.5992C52.5812 55.5037 53.7675 54.932 54.633 53.9987C55.4985 53.0653 55.9792 51.8393 55.9788 50.5665V43.7906L60.7719 38.9975L61.0671 38.6771C61.8797 37.7107 62.3005 36.4748 62.2463 35.2133C62.1922 33.9518 61.667 32.7565 60.7744 31.8633L55.9813 27.0703V20.2943L55.9662 19.9159C55.8708 18.6471 55.2994 17.4611 54.3666 16.5957C53.4338 15.7303 52.2084 15.2492 50.936 15.249H44.1601L39.367 10.4584L39.0441 10.1633C38.0779 9.35133 36.8425 8.93097 35.5816 8.98514ZM32.861 38.5257L43.5672 27.8195C44.043 27.36 44.6803 27.1057 45.3417 27.1114C46.0031 27.1172 46.6359 27.3825 47.1036 27.8502C47.5713 28.3179 47.8366 28.9507 47.8424 29.6121C47.8481 30.2735 47.5938 30.9108 47.1343 31.3866L34.8237 43.6997C34.566 43.9576 34.26 44.1621 33.9232 44.3016C33.5865 44.4411 33.2255 44.513 32.861 44.513C32.4965 44.513 32.1355 44.4411 31.7988 44.3016C31.462 44.1621 31.1561 43.9576 30.8984 43.6997L24.8339 37.6352C24.3605 37.1622 24.0944 36.5205 24.0942 35.8513C24.094 35.1821 24.3596 34.5403 24.8326 34.0669C25.3056 33.5935 25.9473 33.3275 26.6165 33.3272C27.2857 33.327 27.9276 33.5926 28.4009 34.0656L32.861 38.5257Z" fill="url(#paint0_linear_212_83)"/>
<defs>
<linearGradient id="paint0_linear_212_83" x1="34.9661" y1="0.617188" x2="76.2564" y2="38.2967" gradientUnits="userSpaceOnUse">
<stop stop-color="white"/>
<stop offset="1" stop-color="#BACDFE"/>
</linearGradient>
</defs>
</svg>
