<svg width="103" height="61" viewBox="0 0 103 61" fill="none" xmlns="http://www.w3.org/2000/svg">
<path fill-rule="evenodd" clip-rule="evenodd" d="M34.7588 15.8571C39.6 15.0182 49.5532 10.6922 50.6366 0.0996094C51.7199 10.6922 61.6732 15.0182 66.5144 15.8572C61.6732 16.6961 51.7199 21.022 50.6366 31.6146C49.5532 21.022 39.6 16.6961 34.7588 15.8571ZM1.33835 59.263C2.22748 60.1553 3.33037 60.6014 4.64703 60.6014H27.8822C29.1958 60.6045 30.2987 60.1599 31.1909 59.2677C32.0831 58.3754 32.5292 57.271 32.5292 55.9543V49.9132C35.24 51.8526 38.1831 53.3442 41.3586 54.3883C44.5341 55.4323 47.787 55.9543 51.1174 55.9543C54.5221 55.9543 57.7936 55.4509 60.9319 54.444C64.0702 53.4372 66.9948 51.9656 69.7055 50.0294V55.9543C69.7086 57.2679 70.1547 58.3708 71.0439 59.263C71.933 60.1553 73.0359 60.6014 74.3526 60.6014H97.5877C98.9013 60.6045 100.004 60.1599 100.896 59.2677C101.789 58.3754 102.235 57.271 102.235 55.9543V42.0132C102.235 39.3799 101.344 37.1726 99.5627 35.3912C97.7813 33.6098 95.574 32.7192 92.9407 32.7192H77.7217C76.2532 32.7192 74.8405 33.1064 73.4836 33.8809C72.1266 34.6554 70.9447 35.701 69.9379 37.0177C67.7723 40.0382 65.043 42.4005 61.7498 44.1044C58.4566 45.8083 54.9125 46.6603 51.1174 46.6603C47.4029 46.6603 43.899 45.8083 40.6058 44.1044C37.3126 42.4005 34.543 40.0382 32.2969 37.0177C31.4449 35.701 30.3219 34.6554 28.9278 33.8809C27.5337 33.1064 26.0621 32.7192 24.5131 32.7192H9.29407C6.7413 32.7192 4.55409 33.6098 2.73246 35.3912C0.910819 37.1726 0 39.3799 0 42.0132V55.9543C0.00309802 57.2679 0.449213 58.3708 1.33835 59.263ZM4.06616 24.006C6.77693 26.7167 10.0686 28.0721 13.9411 28.0721C17.8942 28.0721 21.206 26.7167 23.8765 24.006C26.547 21.2952 27.8822 18.0036 27.8822 14.131C27.8853 10.1841 26.5501 6.87391 23.8765 4.20031C21.2029 1.52672 17.8911 0.189922 13.9411 0.189922C10.0686 0.19302 6.77693 1.52982 4.06616 4.20031C1.35539 6.87081 0 10.181 0 14.131C0 18.0036 1.35539 21.2952 4.06616 24.006ZM78.4187 24.006C81.1295 26.7167 84.4211 28.0721 88.2937 28.0721C92.2467 28.0721 95.5585 26.7167 98.229 24.006C100.9 21.2952 102.235 18.0036 102.235 14.131C102.238 10.1841 100.903 6.87391 98.229 4.20031C95.5554 1.52672 92.2436 0.189922 88.2937 0.189922C84.4211 0.19302 81.1295 1.52982 78.4187 4.20031C75.7079 6.87081 74.3526 10.181 74.3526 14.131C74.3526 18.0036 75.7079 21.2952 78.4187 24.006Z" fill="url(#paint0_linear_212_76)"/>
<defs>
<linearGradient id="paint0_linear_212_76" x1="51.1174" y1="0.0996094" x2="83.181" y2="51.308" gradientUnits="userSpaceOnUse">
<stop stop-color="white"/>
<stop offset="1" stop-color="#BACDFE"/>
</linearGradient>
</defs>
</svg>
