<svg width="210" height="210" viewBox="0 0 210 210" fill="none" xmlns="http://www.w3.org/2000/svg">
<g clip-path="url(#clip0_252_106)">
<path d="M160.781 0H49.2188C22.036 0 0 22.036 0 49.2188V160.781C0 187.964 22.036 210 49.2188 210H160.781C187.964 210 210 187.964 210 160.781V49.2188C210 22.036 187.964 0 160.781 0Z" fill="url(#paint0_radial_252_106)"/>
<path d="M160.781 0H49.2188C22.036 0 0 22.036 0 49.2188V160.781C0 187.964 22.036 210 49.2188 210H160.781C187.964 210 210 187.964 210 160.781V49.2188C210 22.036 187.964 0 160.781 0Z" fill="url(#paint1_radial_252_106)"/>
<path d="M105.007 22.9688C82.7293 22.9688 79.9329 23.0664 71.1834 23.4642C62.4504 23.8645 56.4892 25.2468 51.2736 27.2754C45.8776 29.3705 41.3011 32.1735 36.7418 36.7344C32.1784 41.2945 29.3754 45.8711 27.2738 51.2646C25.2394 56.4818 23.8555 62.4455 23.4626 71.1744C23.0713 79.9247 22.9688 82.722 22.9688 105.001C22.9688 127.28 23.0672 130.067 23.4642 138.817C23.8662 147.55 25.2484 153.511 27.2754 158.726C29.3721 164.122 32.1751 168.699 36.7361 173.258C41.2945 177.822 45.8711 180.631 51.263 182.726C56.4826 184.755 62.4446 186.137 71.1761 186.537C79.9263 186.935 82.7203 187.033 104.998 187.033C127.278 187.033 130.065 186.935 138.815 186.537C147.548 186.137 153.516 184.755 158.735 182.726C164.129 180.631 168.699 177.822 173.257 173.258C177.82 168.699 180.622 164.122 182.725 158.729C184.741 153.511 186.126 147.548 186.536 138.818C186.929 130.069 187.031 127.28 187.031 105.001C187.031 82.722 186.929 79.9263 186.536 71.176C186.126 62.443 184.741 56.4826 182.725 51.2671C180.622 45.8711 177.82 41.2945 173.257 36.7344C168.694 32.1718 164.131 29.3688 158.73 27.2762C153.501 25.2468 147.536 23.8637 138.803 23.4642C130.053 23.0664 127.267 22.9688 104.982 22.9688H105.007ZM97.6484 37.7516C99.8329 37.7483 102.27 37.7516 105.007 37.7516C126.911 37.7516 129.506 37.8304 138.155 38.2233C146.153 38.5891 150.495 39.9254 153.386 41.0484C157.215 42.5348 159.944 44.3125 162.813 47.1844C165.684 50.0555 167.461 52.7896 168.952 56.618C170.075 59.5055 171.413 63.8466 171.777 71.8446C172.17 80.4923 172.255 83.0894 172.255 104.982C172.255 126.874 172.17 129.472 171.777 138.119C171.411 146.117 170.075 150.458 168.952 153.347C167.465 157.175 165.684 159.901 162.813 162.771C159.942 165.642 157.216 167.418 153.386 168.906C150.498 170.034 146.153 171.367 138.155 171.732C129.508 172.125 126.911 172.211 105.007 172.211C83.1034 172.211 80.5071 172.125 71.8602 171.732C63.8621 171.363 59.5211 170.027 56.627 168.904C52.7994 167.417 50.0645 165.64 47.1934 162.769C44.3223 159.898 42.5455 157.17 41.055 153.34C39.932 150.452 38.5941 146.111 38.2298 138.113C37.8369 129.465 37.7582 126.868 37.7582 104.961C37.7582 83.0558 37.8369 80.4718 38.2298 71.8241C38.5957 63.8261 39.932 59.485 41.055 56.5934C42.5422 52.765 44.3223 50.0309 47.1942 47.1598C50.0653 44.2887 52.7994 42.5111 56.6278 41.0214C59.5194 39.8934 63.8621 38.5604 71.8602 38.1929C79.4276 37.8509 82.3602 37.7483 97.6484 37.7311V37.7516ZM148.796 51.3721C143.361 51.3721 138.952 55.7771 138.952 61.2125C138.952 66.6471 143.361 71.0563 148.796 71.0563C154.23 71.0563 158.639 66.6471 158.639 61.2125C158.639 55.778 154.23 51.3688 148.796 51.3688V51.3721ZM105.007 62.8737C81.7433 62.8737 62.8811 81.7359 62.8811 105.001C62.8811 128.266 81.7433 147.119 105.007 147.119C128.272 147.119 147.128 128.266 147.128 105.001C147.128 81.7368 128.271 62.8737 105.006 62.8737H105.007ZM105.007 77.6565C120.109 77.6565 132.352 89.898 132.352 105.001C132.352 120.102 120.109 132.345 105.007 132.345C89.9054 132.345 77.6639 120.102 77.6639 105.001C77.6639 89.898 89.9054 77.6565 105.007 77.6565Z" fill="white"/>
</g>
<defs>
<radialGradient id="paint0_radial_252_106" cx="0" cy="0" r="1" gradientUnits="userSpaceOnUse" gradientTransform="translate(55.7812 226.174) rotate(-90) scale(208.126 193.573)">
<stop stop-color="#FFDD55"/>
<stop offset="0.1" stop-color="#FFDD55"/>
<stop offset="0.5" stop-color="#FF543E"/>
<stop offset="1" stop-color="#C837AB"/>
</radialGradient>
<radialGradient id="paint1_radial_252_106" cx="0" cy="0" r="1" gradientUnits="userSpaceOnUse" gradientTransform="translate(-35.1758 15.1274) rotate(78.681) scale(93.0333 383.486)">
<stop stop-color="#3771C8"/>
<stop offset="0.128" stop-color="#3771C8"/>
<stop offset="1" stop-color="#6600FF" stop-opacity="0"/>
</radialGradient>
<clipPath id="clip0_252_106">
<rect width="210" height="210" fill="white"/>
</clipPath>
</defs>
</svg>
