<svg width="256" height="193" viewBox="0 0 256 193" fill="none" xmlns="http://www.w3.org/2000/svg">
<g clip-path="url(#clip0_252_111)">
<path d="M58.182 192.05V93.1399L27.507 65.0769L0 49.5039V174.595C0 184.253 7.825 192.05 17.455 192.05H58.182Z" fill="#4285F4"/>
<path d="M197.818 192.05H238.545C248.204 192.05 256 184.224 256 174.595V49.5049L224.844 67.3419L197.818 93.1399V192.05Z" fill="#34A853"/>
<path d="M58.1818 93.1399L54.0078 54.4929L58.1818 17.5039L128 69.8679L197.818 17.5039L202.487 52.4959L197.818 93.1399L128 145.504L58.1818 93.1399Z" fill="#EA4335"/>
<path d="M197.818 17.5037V93.1397L256 49.5037V26.2307C256 4.64569 231.36 -7.65931 214.11 5.28569L197.818 17.5037Z" fill="#FBBC04"/>
<path d="M0 49.5042L26.759 69.5742L58.182 93.1402V17.5041L41.89 5.28615C24.61 -7.65985 0 4.64615 0 26.2301V49.5031V49.5042Z" fill="#C5221F"/>
</g>
<defs>
<clipPath id="clip0_252_111">
<rect width="256" height="193" fill="white"/>
</clipPath>
</defs>
</svg>
