<svg width="209" height="210" viewBox="0 0 209 210" fill="none" xmlns="http://www.w3.org/2000/svg">
<g clip-path="url(#clip0_252_102)">
<path d="M4.44677 103.744C4.44189 121.388 9.05212 138.616 17.8184 153.801L3.6084 205.684L56.7042 191.762C71.3898 199.757 87.844 203.946 104.565 203.947H104.609C159.807 203.947 204.74 159.031 204.763 103.823C204.774 77.0703 194.365 51.9143 175.454 32.9882C156.545 14.0638 131.398 3.63623 104.605 3.62402C49.3998 3.62402 4.47038 48.538 4.44758 103.744" fill="url(#paint0_linear_252_102)"/>
<path d="M0.87093 103.711C0.865233 121.99 5.6407 139.834 14.7195 155.563L0 209.306L54.9996 194.885C70.1538 203.147 87.2159 207.504 104.578 207.51H104.622C161.801 207.51 208.348 160.978 208.372 103.794C208.382 76.0802 197.599 50.0199 178.012 30.4158C158.422 10.8142 132.376 0.0113953 104.622 0C47.4339 0 0.893721 46.5256 0.87093 103.711ZM33.6244 152.854L31.5708 149.594C22.938 135.868 18.3815 120.005 18.388 103.717C18.4067 56.1864 57.0891 17.5163 104.655 17.5163C127.69 17.526 149.338 26.5056 165.62 42.7977C181.902 59.0914 190.861 80.7507 190.855 103.787C190.834 151.318 152.151 189.993 104.622 189.993H104.588C89.1124 189.985 73.9346 185.829 60.6981 177.975L57.5481 176.107L24.9102 184.664L33.6244 152.853V152.854Z" fill="url(#paint1_linear_252_102)"/>
<path d="M78.6915 60.353C76.7494 56.0366 74.7056 55.9495 72.8587 55.8738C71.3464 55.8087 69.6175 55.8136 67.8903 55.8136C66.1615 55.8136 63.3526 56.4639 60.9782 59.0564C58.6015 61.6512 51.9043 67.9219 51.9043 80.6758C51.9043 93.4304 61.1939 105.756 62.4889 107.487C63.7856 109.215 80.4228 136.226 106.772 146.617C128.671 155.252 133.127 153.534 137.88 153.101C142.633 152.67 153.218 146.832 155.377 140.779C157.538 134.726 157.538 129.538 156.89 128.454C156.243 127.374 154.514 126.725 151.921 125.429C149.328 124.133 136.583 117.861 134.207 116.996C131.83 116.132 130.102 115.7 128.374 118.296C126.645 120.888 121.68 126.725 120.167 128.454C118.656 130.187 117.143 130.403 114.551 129.106C111.957 127.805 103.608 125.071 93.7033 116.241C85.9967 109.369 80.7939 100.884 79.2816 98.2881C77.7693 95.6965 79.1196 94.2916 80.4195 92.9998C81.5843 91.8383 83.0128 89.9727 84.3102 88.4596C85.6028 86.9457 86.0342 85.8655 86.8986 84.1367C87.7638 82.4062 87.3308 80.8923 86.6837 79.5957C86.0342 78.299 80.9966 65.4784 78.6915 60.353Z" fill="white"/>
</g>
<defs>
<linearGradient id="paint0_linear_252_102" x1="39.0702" y1="34.1862" x2="104.186" y2="205.684" gradientUnits="userSpaceOnUse">
<stop stop-color="#60D669"/>
<stop offset="1" stop-color="#1FAF38"/>
</linearGradient>
<linearGradient id="paint1_linear_252_102" x1="10418.6" y1="20930.6" x2="10418.6" y2="0" gradientUnits="userSpaceOnUse">
<stop stop-color="#F9F9F9"/>
<stop offset="1" stop-color="white"/>
</linearGradient>
<clipPath id="clip0_252_102">
<rect width="208.372" height="210" fill="white"/>
</clipPath>
</defs>
</svg>
